<?xml version="1.0" standalone="no"?>
<svg xmlns="http://www.w3.org/2000/svg" width="342.3004574436112" height="109.78092619361118" viewBox="0 0 342.3004574436112 109.78092619361118"><g fill="#00936f" color="#00936f" transform="translate(0 0) scale(1.0978093)"><svg width="100.0" height="100.0" x="0.0" y="0.0" viewBox="0 0 100 100"><g><path d="M94.647,41.966L84.06,46.969l-0.016-0.016c0,0-9.491,0.333-17.38,3.682c-2.386,1.015-4.654,2.317-6.677,3.65l-7.445-22.686   c-0.013-0.033-0.352-0.865-1.163-1.033l-16.713-2.406l0.004-11.184l-0.025-0.202h-4.696v10.489l-16.507-2.543   c-0.912,0-1.325,1.034-1.343,1.081L0.708,60.376c-0.052,0.16-0.067,0.341-0.021,0.692c0.028,0.168,0.09,0.336,0.245,0.607   c0.095,0.131,0.217,0.25,0.333,0.333c0.049,0.058,4.995,5.633,12.181,5.633c7.324,0,12.13-5.579,12.144-5.603   c0.145-0.102,0.266-0.222,0.429-0.459c0.103-0.187,0.165-0.35,0.217-0.651c0.013-0.218-0.003-0.393-0.088-0.646L15.7,28.12   l14.249,2.016v47.67H20.68v4.699h23.022v-4.699h-9.062l0.026-46.775l14.514,2.227L38.415,66.165   c-0.051,0.159-0.067,0.34-0.021,0.69c0.028,0.169,0.09,0.338,0.246,0.607c0.095,0.132,0.217,0.252,0.333,0.334   c0.049,0.058,4.996,5.634,12.182,5.634c7.323,0,12.129-5.58,12.143-5.604c0.145-0.103,0.266-0.221,0.429-0.459   c0.104-0.187,0.163-0.35,0.218-0.65c0.013-0.217-0.003-0.394-0.089-0.646l-2.259-6.885c2.897-1.215,5.309-1.732,5.309-1.732   s-2.874,5.003-1.777,8.521c0.363,1.196,1.139,1.813,1.775,2.124c0.292-1.416,0.898-3.648,2.084-5.564   c1.383-2.234,2.533-3.084,2.582-3.118c0.377-0.271,0.885-0.152,1.13,0.282c0.247,0.437,0.137,1.01-0.237,1.281   c-0.021,0.023-0.957,0.742-2.133,2.639c-1.344,2.173-1.85,4.915-1.984,5.828c0.281,0.554,0.713,1.219,1.323,1.673   c0.366,0.279,0.726,0.36,1.046,0.354c0.21-1.225,0.597-2.79,1.301-4.154c1.01-1.959,1.896-2.678,1.994-2.755   c0.374-0.294,0.884-0.181,1.137,0.24c0.256,0.424,0.168,1-0.196,1.281c-0.028,0.029-0.708,0.615-1.521,2.189   c-0.532,1.038-0.858,2.255-1.05,3.275c0.321,0.537,0.827,1.211,1.411,1.391c2.259,0.693,3.469-1.641,3.469-1.641l1.519-2.977   c0,0,2.303,0.271,3.788-0.474c4.232-1.839,8.112-8.459,8.841-9.774l7.86-3.711L94.647,41.966z M22.613,59.314H4.282l9.165-28.731   L22.613,59.314z M41.988,65.102l9.166-28.73l6.283,19.695c-3.445,2.55-5.697,4.779-5.697,4.779s-1.323,1.513-0.653,2.455   c0.868,1.241,1.845,0.411,2.476,0.083c0.625-0.315,2.215-1.397,5.279-2.915l1.479,4.633H41.988z"></path></g></svg></g><path fill="#ffffff" fill-rule="nonzero" d="M27.42 17.19L27.79 5.66L27.70 5.64L18.50 28.44L15.94 28.44L6.74 5.66L6.64 5.68L7.03 17.19L7.03 25.43L10.21 25.98L10.21 28.44L0 28.44L0 25.98L3.18 25.43L3.18 3.03L0 2.48L0 0L3.18 0L8.11 0L17.17 23.11L17.29 23.11L26.33 0L34.45 0L34.45 2.48L31.27 3.03L31.27 25.43L34.45 25.98L34.45 28.44L24.24 28.44L24.24 25.98L27.42 25.43L27.42 17.19ZM40.39 0L50.27 0Q54.82 0 57.35 2.34Q59.88 4.69 59.88 8.52L59.88 8.52Q59.88 12.38 57.35 14.71Q54.82 17.03 50.27 17.03L50.27 17.03L44.24 17.03L44.24 25.43L47.42 25.98L47.42 28.44L37.21 28.44L37.21 25.98L40.39 25.43L40.39 3.03L37.21 2.48L37.21 0L40.39 0ZM44.24 3.03L44.24 14.02L50.27 14.02Q53.16 14.02 54.60 12.47Q56.04 10.92 56.04 8.55L56.04 8.55Q56.04 6.19 54.60 4.61Q53.16 3.03 50.27 3.03L50.27 3.03L44.24 3.03ZM65.80 0L75.68 0Q80.23 0 82.76 2.34Q85.29 4.69 85.29 8.52L85.29 8.52Q85.29 12.38 82.76 14.71Q80.23 17.03 75.68 17.03L75.68 17.03L69.65 17.03L69.65 25.43L72.83 25.98L72.83 28.44L62.62 28.44L62.62 25.98L65.80 25.43L65.80 3.03L62.62 2.48L62.62 0L65.80 0ZM69.65 3.03L69.65 14.02L75.68 14.02Q78.57 14.02 80.01 12.47Q81.45 10.92 81.45 8.55L81.45 8.55Q81.45 6.19 80.01 4.61Q78.57 3.03 75.68 3.03L75.68 3.03L69.65 3.03Z" transform="translate(124.781 0) scale(2.551)"></path><path fill="#ffffff" fill-rule="nonzero" d="M0 28.85L0 26.39L2.11 26.09L12.05 0.41L15.35 0.41L25.12 26.09L27.21 26.39L27.21 28.85L19.04 28.85L19.04 26.39L21.19 26.02L19.32 20.78L7.93 20.78L6.00 26.02L8.14 26.39L8.14 28.85L0 28.85ZM13.61 5.35L9.12 17.56L18.14 17.56L13.73 5.35L13.61 5.35ZM32.79 0.41L42.07 0.41Q46.52 0.41 49.03 2.33Q51.54 4.26 51.54 8.11L51.54 8.11Q51.54 10 50.34 11.49Q49.14 12.99 47.17 13.71L47.17 13.71Q49.73 14.26 51.21 16.23Q52.70 18.20 52.70 20.82L52.70 20.82Q52.70 24.73 50.16 26.79Q47.62 28.85 43.28 28.85L43.28 28.85L29.61 28.85L29.61 26.39L32.79 25.84L32.79 3.44L29.61 2.89L29.61 0.41L32.79 0.41ZM43.87 15.51L36.64 15.51L36.64 25.84L43.28 25.84Q45.92 25.84 47.37 24.54Q48.83 23.24 48.83 20.86L48.83 20.86Q48.83 18.36 47.61 16.93Q46.39 15.51 43.87 15.51L43.87 15.51ZM36.64 3.44L36.64 12.50L43.07 12.50Q45.14 12.44 46.42 11.27Q47.70 10.10 47.70 8.03L47.70 8.03Q47.70 5.72 46.25 4.58Q44.80 3.44 42.07 3.44L42.07 3.44L36.64 3.44ZM81.21 14.43L81.21 14.84Q81.21 21.05 77.65 25.16Q74.08 29.26 68.42 29.26L68.42 29.26Q62.91 29.26 59.47 25.16Q56.04 21.05 56.04 14.84L56.04 14.84L56.04 14.43Q56.04 8.24 59.47 4.12Q62.91 0 68.42 0L68.42 0Q74.08 0 77.65 4.12Q81.21 8.24 81.21 14.43L81.21 14.43ZM77.36 14.84L77.36 14.39Q77.36 9.43 74.99 6.30Q72.62 3.16 68.42 3.16L68.42 3.16Q64.39 3.16 62.14 6.31Q59.88 9.45 59.88 14.39L59.88 14.39L59.88 14.84Q59.88 19.84 62.14 22.98Q64.39 26.11 68.42 26.11L68.42 26.11Q72.68 26.11 75.02 22.99Q77.36 19.86 77.36 14.84L77.36 14.84ZM106.74 15.43L106.74 25.63Q105.49 26.93 103.05 28.10Q100.61 29.26 96.70 29.26L96.70 29.26Q91.00 29.26 87.39 25.25Q83.79 21.25 83.79 14.86L83.79 14.86L83.79 14.39Q83.79 7.97 87.35 3.98Q90.92 0 96.84 0L96.84 0Q100 0 102.39 0.99Q104.79 1.97 106.43 3.59L106.43 3.59L106.43 8.75L103.73 8.75L102.79 4.82Q101.84 4.04 100.48 3.54Q99.12 3.03 97.23 3.03L97.23 3.03Q92.62 3.03 90.13 6.18Q87.64 9.34 87.64 14.36L87.64 14.36L87.64 14.86Q87.64 19.96 90.05 23.11Q92.46 26.25 96.70 26.25L96.70 26.25Q99.02 26.25 100.51 25.76Q101.99 25.27 102.89 24.69L102.89 24.69L102.89 18.46L98.22 18.26L98.22 15.43L106.74 15.43ZM110.88 28.85L110.88 26.39L112.99 26.09L122.93 0.41L126.23 0.41L136.00 26.09L138.09 26.39L138.09 28.85L129.92 28.85L129.92 26.39L132.07 26.02L130.20 20.78L118.81 20.78L116.88 26.02L119.02 26.39L119.02 28.85L110.88 28.85ZM124.49 5.35L120 17.56L129.02 17.56L124.61 5.35L124.49 5.35ZM143.67 0.41L152.40 0.41Q157.97 0.41 161.36 3.84Q164.75 7.27 164.75 12.70L164.75 12.70L164.75 16.58Q164.75 22.03 161.36 25.44Q157.97 28.85 152.40 28.85L152.40 28.85L140.49 28.85L140.49 26.39L143.67 25.84L143.67 3.44L140.49 2.89L140.49 0.41L143.67 0.41ZM152.40 3.44L147.52 3.44L147.52 25.84L152.40 25.84Q156.35 25.84 158.62 23.24Q160.90 20.64 160.90 16.58L160.90 16.58L160.90 12.66Q160.90 8.63 158.62 6.04Q156.35 3.44 152.40 3.44L152.40 3.44ZM193.54 14.43L193.54 14.84Q193.54 21.05 189.97 25.16Q186.41 29.26 180.74 29.26L180.74 29.26Q175.23 29.26 171.80 25.16Q168.36 21.05 168.36 14.84L168.36 14.84L168.36 14.43Q168.36 8.24 171.80 4.12Q175.23 0 180.74 0L180.74 0Q186.41 0 189.97 4.12Q193.54 8.24 193.54 14.43L193.54 14.43ZM189.69 14.84L189.69 14.39Q189.69 9.43 187.31 6.30Q184.94 3.16 180.74 3.16L180.74 3.16Q176.72 3.16 174.46 6.31Q172.21 9.45 172.21 14.39L172.21 14.39L172.21 14.84Q172.21 19.84 174.46 22.98Q176.72 26.11 180.74 26.11L180.74 26.11Q185 26.11 187.34 22.99Q189.69 19.86 189.69 14.84L189.69 14.84ZM217.01 3.52L217.01 8.81L214.10 8.81L213.38 4.75Q212.50 4.00 211.04 3.52Q209.57 3.03 207.64 3.03L207.64 3.03Q204.57 3.03 202.93 4.33Q201.29 5.63 201.29 7.71L201.29 7.71Q201.29 9.57 202.96 10.81Q204.63 12.05 208.36 12.99L208.36 12.99Q212.85 14.10 215.19 16.27Q217.52 18.44 217.52 21.64L217.52 21.64Q217.52 25.08 214.72 27.17Q211.91 29.26 207.38 29.26L207.38 29.26Q204.10 29.26 201.55 28.18Q199.00 27.11 197.40 25.37L197.40 25.37L197.40 20.08L200.29 20.08L201.04 24.16Q202.15 25.08 203.69 25.66Q205.23 26.25 207.38 26.25L207.38 26.25Q210.29 26.25 211.98 25.02Q213.67 23.79 213.67 21.68L213.67 21.68Q213.67 19.73 212.21 18.41Q210.74 17.09 207.03 16.19L207.03 16.19Q202.52 15.12 199.98 13.03Q197.44 10.94 197.44 7.77L197.44 7.77Q197.44 4.43 200.27 2.22Q203.11 0 207.64 0L207.64 0Q210.63 0 213.08 1.03Q215.53 2.05 217.01 3.52L217.01 3.52Z" transform="translate(124.781 80.524) scale(1)"></path></svg>